<svg width="16" height="16" viewBox="0 0 16 16" fill="none" xmlns="http://www.w3.org/2000/svg">
<g clip-path="url(#clip0_143_3090)">
<path d="M8 16C12.4334 16 16 12.4334 16 8C16 3.56664 12.4334 0 8 0C3.56664 0 0 3.56664 0 8C0 12.4334 3.56664 16 8 16Z" fill="#2775CA"/>
<path d="M10.1991 9.26665C10.1991 8.10001 9.49906 7.70001 8.09906 7.53337C7.09906 7.40001 6.89906 7.13337 6.89906 6.66665C6.89906 6.19993 7.23242 5.90001 7.89906 5.90001C8.49906 5.90001 8.83242 6.10001 8.99906 6.60001C9.03242 6.70001 9.13242 6.76665 9.23242 6.76665H9.7657C9.89906 6.76665 9.99906 6.66665 9.99906 6.53337V6.50001C9.8657 5.76665 9.2657 5.20001 8.49906 5.13337V4.33337C8.49906 4.20001 8.39906 4.10001 8.23242 4.06665H7.73242C7.59906 4.06665 7.49906 4.16665 7.4657 4.33337V5.10001C6.4657 5.23337 5.83242 5.90001 5.83242 6.73337C5.83242 7.83337 6.49906 8.26665 7.89906 8.43337C8.83242 8.60001 9.13242 8.80001 9.13242 9.33337C9.13242 9.86673 8.6657 10.2334 8.03242 10.2334C7.1657 10.2334 6.8657 9.86665 6.7657 9.36665C6.73242 9.23337 6.63242 9.16665 6.53242 9.16665H5.9657C5.83242 9.16665 5.73242 9.26665 5.73242 9.40001V9.43337C5.8657 10.2667 6.39906 10.8667 7.49906 11.0334V11.8334C7.49906 11.9667 7.59906 12.0667 7.7657 12.1H8.2657C8.39906 12.1 8.49906 12 8.53242 11.8334V11.0334C9.53242 10.8667 10.1991 10.1667 10.1991 9.26665Z" fill="#300846"/>
<path d="M6.30065 12.7665C3.70065 11.8333 2.36729 8.93325 3.33401 6.36653C3.83401 4.96653 4.93401 3.89989 6.30065 3.39989C6.43401 3.33325 6.50065 3.23325 6.50065 3.06653V2.59989C6.50065 2.46653 6.43401 2.36653 6.30065 2.33325C6.26729 2.33325 6.20065 2.33325 6.16729 2.36653C3.00065 3.36653 1.26729 6.73325 2.26729 9.89989C2.86729 11.7665 4.30065 13.1999 6.16729 13.7999C6.30065 13.8665 6.43401 13.7999 6.46729 13.6665C6.50065 13.6333 6.50065 13.5999 6.50065 13.5333V13.0665C6.50065 12.9665 6.40065 12.8333 6.30065 12.7665ZM9.83401 2.36653C9.70065 2.29989 9.56729 2.36653 9.53401 2.49989C9.50065 2.53325 9.50065 2.56653 9.50065 2.63325V3.09989C9.50065 3.23325 9.60065 3.36653 9.70065 3.43325C12.3007 4.36653 13.634 7.26653 12.6673 9.83325C12.1673 11.2333 11.0673 12.2999 9.70065 12.7999C9.56729 12.8665 9.50065 12.9665 9.50065 13.1333V13.5999C9.50065 13.7333 9.56729 13.8333 9.70065 13.8665C9.73401 13.8665 9.80065 13.8665 9.83401 13.8333C13.0007 12.8333 14.734 9.46653 13.734 6.29989C13.134 4.39989 11.6673 2.96653 9.83401 2.36653Z" fill="#300846"/>
</g>
<defs>
<clipPath id="clip0_143_3090">
<rect width="16" height="16" fill="white"/>
</clipPath>
</defs>
</svg>
